<svg width="250" height="44" viewBox="0 0 250 44" fill="none" xmlns="http://www.w3.org/2000/svg">
<path d="M35.7582 0.93617L17.8791 19.5348L17.6333 19.2851L0 1.37305V0L0.12288 0.124823C0.12288 0.124823 0.12288 0.124823 0.18432 0.187234C0.737282 0.624114 1.2288 1.1234 1.78176 1.56028C2.15041 1.87234 2.45761 2.12199 2.82625 2.37163C3.50209 2.87092 4.17793 3.43262 4.85377 3.8695C4.97665 3.93192 5.09953 4.05674 5.22241 4.11915C5.34529 4.18156 5.46817 4.30638 5.59105 4.36879C5.9597 4.61844 6.2669 4.86809 6.63554 5.05532C6.75842 5.11773 6.8813 5.24255 7.06562 5.30496C7.4957 5.55461 7.86434 5.80426 8.29442 6.0539C8.54018 6.17872 8.78594 6.30355 9.0317 6.42837C9.0317 6.42837 9.09314 6.42837 9.09314 6.49078C9.40034 6.67801 9.70754 6.80284 10.0147 6.99007C10.5677 7.30213 11.1207 7.55177 11.6736 7.73901C11.858 7.80142 12.0423 7.86383 12.2266 7.98865C12.5952 8.11347 12.9024 8.30071 13.2711 8.42553C13.5783 8.55035 13.9469 8.67518 14.2541 8.8C14.377 8.86241 14.5613 8.92482 14.6842 8.92482C14.8071 8.98723 14.93 8.98723 14.9914 9.04965C15.1143 9.11206 15.1757 9.11206 15.2986 9.17447C15.4829 9.23688 15.7287 9.29929 15.913 9.3617C16.7117 9.61135 17.449 9.79858 18.1863 9.98582C18.3092 9.98582 18.432 10.0482 18.4935 10.0482C19.8452 10.3603 20.9511 10.5475 21.7498 10.6099C21.8727 10.6099 21.9956 10.6099 22.1185 10.6723C22.2413 10.6723 22.3642 10.6723 22.4257 10.6723C22.4871 10.6723 22.5485 10.6723 22.61 10.6723C23.4087 10.6723 24.6375 10.6099 24.6375 10.6099C24.7604 10.4851 26.1121 9.04965 26.3578 8.8C26.6036 8.55035 26.5421 8.36312 26.3578 8.2383C26.1121 8.11348 19.9681 4.61844 19.9681 4.61844C19.6609 4.43121 19.5994 4.24397 19.9681 3.8695C20.3367 3.49504 20.7053 3.55745 20.8897 3.55745C21.1354 3.55745 29.6142 4.9305 29.6142 4.9305H29.6756C30.0442 4.9305 30.2286 4.74326 30.5358 4.49362C30.5358 4.49362 32.9319 2.12199 33.7306 1.37305C34.4065 0.748936 35.2052 0.561702 35.7582 0.93617Z" transform="translate(0 6.86523)" fill="white"/>
<path d="M18.6164 36.1362H17.3261L0 18.5986L17.8791 0C17.9405 0.0624113 17.9405 0.0624112 18.002 0.124823C18.1863 0.312057 18.3092 0.561702 18.3092 0.873759C18.3092 1.31064 18.1248 1.87234 17.6333 2.37163C16.896 3.24539 14.5613 5.61702 14.5613 5.61702C14.2541 5.92908 14.0698 6.11631 14.0698 6.49078V6.55319C14.0698 6.55319 15.4215 15.166 15.4215 15.4156C15.4215 15.6652 15.4829 16.0397 15.1143 16.3518C14.6842 16.7887 14.4999 16.7262 14.377 16.4142C14.377 16.4142 10.9363 10.173 10.8135 9.9234C10.6906 9.67376 10.5063 9.67376 10.2605 9.9234C10.0147 10.173 8.66306 11.4837 8.47874 11.6709C8.29442 11.7957 8.35586 11.8582 8.35586 12.0454L8.23298 13.1064C8.23298 13.1064 8.23298 13.2312 8.23298 13.356C8.23298 13.4184 8.23298 13.4809 8.23298 13.5433C8.23298 13.6057 8.23298 13.6681 8.23298 13.7929C8.23298 13.8553 8.23298 13.9801 8.23298 14.0426C8.23298 14.1674 8.23298 14.2922 8.29442 14.417C8.29442 14.4794 8.29442 14.5418 8.29442 14.6043C8.29442 14.6667 8.29442 14.7291 8.29442 14.7915C8.29442 14.9163 8.35586 15.1035 8.35586 15.2284C8.35586 15.3532 8.4173 15.478 8.4173 15.6028C8.4173 15.7277 8.47874 15.8525 8.47874 15.9773C8.47874 16.1645 8.54018 16.2894 8.54018 16.4766V16.539C8.60162 16.7262 8.60162 16.9759 8.66306 17.1631C8.7245 17.3504 8.7245 17.4752 8.78594 17.6624C8.78594 17.7872 8.84738 17.9121 8.84738 17.9745C8.97026 18.4738 9.09314 19.0355 9.27746 19.5972C9.3389 19.7844 9.40034 19.9716 9.46178 20.2213C9.70754 21.0326 10.0147 21.844 10.3219 22.7801C10.3834 22.905 10.4448 23.0298 10.4448 23.1546C10.5063 23.2794 10.5677 23.4043 10.5677 23.5291C10.6291 23.7787 10.752 23.966 10.8749 24.2156C10.9363 24.4028 11.0592 24.5901 11.1207 24.8397L11.1821 24.9645C11.305 25.2142 11.4279 25.4014 11.4893 25.6511C11.4893 25.7135 11.5507 25.7135 11.5507 25.7759C11.6736 25.9631 11.7351 26.1504 11.858 26.4C11.9194 26.5872 12.0423 26.7121 12.1037 26.8993C12.288 27.2113 12.4109 27.5858 12.5952 27.8979C12.6567 28.0851 12.7796 28.2099 12.841 28.3972C13.0253 28.7092 13.2096 29.0837 13.4554 29.3957C13.5783 29.583 13.6397 29.7078 13.7626 29.895C13.8855 30.0823 14.0084 30.2071 14.0698 30.3943C14.2541 30.7064 14.4999 31.0184 14.6842 31.3929C14.8071 31.5801 14.93 31.7674 15.0528 31.8922C15.2986 32.2667 15.5444 32.5787 15.7901 32.9532C16.1588 33.4525 16.5888 34.0142 17.0189 34.5135C17.1418 34.7007 17.3261 34.8879 17.449 35.0128C17.5719 35.2 17.7562 35.3872 17.8791 35.5745C18.3092 35.8241 18.432 36.0113 18.6164 36.1362Z" transform="translate(17.8789 7.80139)" fill="white"/>
<path d="M5.89825 0H6.81986C3.07201 0 0.0614402 3.05816 0 6.86525V5.99149C0 2.68369 2.64193 0 5.89825 0Z" fill="#009CE0"/>
<path d="M41.2878 2.05957L35.7582 7.80142C35.7582 7.80142 35.7582 7.80142 35.6967 7.80142C35.2052 7.48936 34.345 7.61418 33.6078 8.30071C32.809 9.04965 30.4129 11.4213 30.4129 11.4213C30.1057 11.6709 29.9828 11.8582 29.5527 11.8582H29.4913C29.4913 11.8582 21.0125 10.4851 20.7668 10.4851C20.521 10.4851 20.1524 10.4227 19.8452 10.7972C19.4151 11.234 19.4765 11.4213 19.8452 11.5461C19.8452 11.5461 25.9892 15.0411 26.2349 15.166C26.4807 15.2908 26.4807 15.478 26.2349 15.7277C25.9892 15.9773 24.6989 17.3504 24.5146 17.5376C24.5146 17.5376 23.2858 17.6 22.4871 17.6C22.4257 17.6 22.3642 17.6 22.3028 17.6C22.1799 17.6 22.1185 17.6 21.9956 17.6C21.8727 17.6 21.7498 17.6 21.6269 17.5376C20.8282 17.4752 19.7223 17.2879 18.3706 16.9759C18.2477 16.9759 18.1248 16.9135 18.0634 16.9135C17.3876 16.7262 16.5888 16.539 15.7901 16.2894C15.6058 16.2269 15.36 16.1645 15.1757 16.1021C15.0528 16.0397 14.9914 16.0397 14.8685 15.9773C14.7456 15.9149 14.6228 15.9149 14.5613 15.8525C14.4384 15.7901 14.2541 15.7277 14.1312 15.7277C13.824 15.6028 13.4554 15.478 13.1482 15.3532C12.841 15.2284 12.4724 15.1035 12.1037 14.9163C11.9194 14.8539 11.7351 14.7915 11.5507 14.6667C10.9978 14.417 10.4448 14.1674 9.89186 13.9177C9.58466 13.7929 9.27746 13.6057 8.97026 13.4184C8.97026 13.4184 8.90882 13.4184 8.90882 13.356C8.66306 13.2312 8.4173 13.1064 8.17154 12.9816C7.74146 12.7319 7.37282 12.4823 6.94274 12.2326C6.81986 12.1702 6.69698 12.0454 6.51266 11.983C6.14402 11.7957 5.83681 11.5461 5.46817 11.2965C5.34529 11.234 5.22241 11.1092 5.09953 11.0468C4.97665 10.9844 4.85377 10.8596 4.73089 10.7972C4.05505 10.3603 3.37921 9.86099 2.70337 9.29929C2.45761 8.98723 2.15041 8.73759 1.78176 8.42553C1.2288 7.98865 0.737282 7.48936 0.18432 7.05248C0.18432 7.05248 0.18432 7.05248 0.12288 6.99007L0 6.86525C0.0614402 3.05816 3.07201 0 6.81986 0H36.4955C38.4001 0 40.1204 0.811347 41.2878 2.05957Z" fill="#009CE0"/>
<path d="M16.9575 4.80567V34.9504C16.9575 38.7574 13.9469 41.8156 10.1991 41.878H10.1376C9.95331 41.6908 9.83042 41.5035 9.6461 41.3163C9.52322 41.1291 9.3389 40.9418 9.21602 40.7546C9.09314 40.5674 8.90882 40.3801 8.78594 40.2553C8.35586 39.756 7.92578 39.1943 7.55714 38.695C7.31138 38.3206 7.06562 38.0085 6.81986 37.634C6.69698 37.4468 6.5741 37.2596 6.45122 37.1348C6.2669 36.8227 6.02113 36.5106 5.83681 36.1362C5.71393 35.9489 5.59105 35.8241 5.52961 35.6369C5.40673 35.4496 5.34529 35.3248 5.22241 35.1376C5.03809 34.8255 4.85377 34.4511 4.60801 34.139C4.48513 33.9518 4.42369 33.827 4.36225 33.6397C4.17793 33.3277 3.99361 33.0156 3.87073 32.6411C3.80929 32.4539 3.68641 32.3291 3.62497 32.1418C3.50209 31.9546 3.44065 31.705 3.31777 31.5177C3.31777 31.4553 3.25633 31.4553 3.25633 31.3929C3.13345 31.1433 3.01057 30.8936 2.94913 30.7064L2.88769 30.5816C2.76481 30.3943 2.70337 30.2071 2.64193 29.9574C2.51905 29.7078 2.45761 29.5206 2.33473 29.2709C2.27329 29.1461 2.21184 29.0213 2.21184 28.8965C2.1504 28.7716 2.08896 28.6468 2.08896 28.522C1.72032 27.6482 1.47456 26.7745 1.2288 25.9631C1.16736 25.7759 1.10592 25.5887 1.04448 25.339C0.86016 24.7773 0.737282 24.2156 0.614402 23.7163C0.614402 23.5915 0.55296 23.4667 0.55296 23.4043C0.49152 23.217 0.491519 23.0298 0.430079 22.905C0.368639 22.7177 0.368641 22.4681 0.307201 22.2809V22.2184C0.245761 22.0312 0.245759 21.9064 0.245759 21.7191C0.245759 21.5943 0.18432 21.4695 0.18432 21.3447C0.18432 21.2199 0.122878 21.095 0.122878 20.9702C0.122878 20.783 0.0614392 20.6582 0.0614392 20.5333C0.0614392 20.4709 0.0614392 20.4085 0.0614392 20.3461C0.0614392 20.2837 0.0614392 20.2213 0.0614392 20.1589C0.0614392 20.034 0 19.9092 0 19.7844C0 19.6596 0 19.5972 0 19.5348C0 19.4723 0 19.3475 0 19.2851C0 19.2227 0 19.1603 0 19.0979C0 18.9731 0 18.8482 0 18.8482L0.122878 17.7872C0.122878 17.6 0.122879 17.6 0.245759 17.4128C0.43008 17.2879 1.78176 15.9149 2.02752 15.6652C2.27329 15.4156 2.4576 15.478 2.58048 15.6652C2.70336 15.9149 6.14402 22.156 6.14402 22.156C6.32834 22.4681 6.51265 22.5305 6.8813 22.0936C7.24994 21.7192 7.1885 21.3447 7.1885 21.1574C6.94274 20.9078 5.59105 12.295 5.59105 12.295V12.2326C5.59105 11.8582 5.77537 11.6709 6.02113 11.3589C6.02113 11.3589 8.35586 8.92482 9.09314 8.11347C9.52322 7.61418 9.76898 7.05248 9.76898 6.6156C9.76898 6.30355 9.6461 6.0539 9.46178 5.86667C9.40034 5.80426 9.40034 5.80426 9.3389 5.74184L14.8685 0C14.8685 0 14.93 0.0624114 14.9914 0.0624114C15.0528 0.0624114 15.0528 0.124823 15.0528 0.187234C15.1757 0.374468 15.36 0.499291 15.4829 0.686525C15.5444 0.748936 15.6058 0.873759 15.6672 0.93617C15.7287 0.998582 15.7901 1.1234 15.8516 1.18582C15.8516 1.18582 15.8516 1.18582 15.8516 1.24823C15.9744 1.43546 16.0359 1.62269 16.1588 1.80993C16.2202 1.99716 16.3431 2.24681 16.4045 2.43404C16.466 2.62128 16.5274 2.80851 16.5888 3.05816C16.5888 3.12057 16.5888 3.12057 16.5888 3.18298C16.5888 3.24539 16.6503 3.37021 16.6503 3.43262C16.6503 3.49504 16.6503 3.55745 16.6503 3.55745C16.6503 3.68227 16.7117 3.8695 16.7117 4.05674C16.896 4.30638 16.9575 4.55603 16.9575 4.80567Z" transform="translate(26.3584 2.05957)" fill="#009CDF"/>
<path d="M29.1841 29.583H26.4193L13.5783 16.539L0 2.7461V0L29.1841 29.583Z" transform="translate(0 14.3546)" fill="#636363"/>
<path d="M13.5783 13.7929L0 0.312057V0L13.5783 13.7929Z" transform="translate(0 17.1007)" fill="#636363"/>
<path d="M23.9002 24.2156L12.288 12.4823L0 0V3.80709L0.491521 3.3078L4.79233 7.6766L3.56353 8.98723L0 5.36738V6.74043L2.82625 9.61135L1.59744 10.8596L0 9.29929V17.2879C0 19.2227 0.798722 20.9702 2.02752 22.2184C2.15041 22.3433 2.33473 22.5305 2.45761 22.6553C2.64193 22.7801 2.76481 22.905 2.94913 23.0298C3.01057 23.0922 3.07201 23.0922 3.13345 23.1546C3.13345 23.1546 3.19489 23.217 3.25633 23.217C3.50209 23.3418 3.68641 23.4667 3.87073 23.5291C4.36225 23.7787 4.91521 23.966 5.46817 24.0908C5.65249 24.1532 5.89825 24.1532 6.08257 24.2156C6.32834 24.2156 6.5741 24.278 6.81986 24.278H14.6842L13.3325 22.905L14.6228 21.6567L17.2032 24.278H18.5549L15.2986 20.9078L16.5274 19.6596L20.8282 24.0284L20.5825 24.278H23.9002V24.2156ZM9.58466 19.0979L5.28385 14.7291L6.51266 13.4809L10.8135 17.8496L9.58466 19.0979ZM11.5507 17.1007L9.70754 15.2284L7.24994 12.7319L8.54018 11.4213L10.9363 13.8553L12.7796 15.7901L11.5507 17.1007Z" transform="translate(0 19.7219)" fill="#636363"/>
<path d="M0.307201 0L0 0.312057L0.307201 0Z" transform="translate(12.2881 31.8922)" fill="#636363"/>
<path d="M0.368642 0H0H0.368642Z" transform="translate(24.1455 43.9376)" fill="#636363"/>
<path d="M12.841 13.044L0 0L12.841 13.044Z" transform="translate(13.5781 30.8937)" fill="#636363"/>
<path d="M0 0H3.25633V6.30355H9.64611V0H12.9024V15.9149H9.64611V9.42412H3.25633V15.9773H0V0Z" transform="translate(54.4971 16.1022)" fill="#4D4D4F"/>
<path d="M4.48513 15.9149C3.56353 15.5404 2.82625 14.9787 2.15041 14.2298C1.47456 13.5433 0.983039 12.6695 0.552958 11.6085C0.184317 10.6099 0 9.48652 0 8.2383C0 6.99007 0.184317 5.86667 0.552958 4.86809C0.921599 3.8695 1.47456 2.99574 2.15041 2.24681C2.82625 1.56028 3.62497 0.998581 4.48513 0.561702C5.40673 0.187234 6.32834 0 7.37282 0C8.4173 0 9.3389 0.187234 10.2605 0.561702C11.1207 0.93617 11.9194 1.49787 12.5952 2.24681C13.2711 2.93333 13.7626 3.80709 14.1312 4.86809C14.4999 5.86667 14.6842 6.99007 14.6842 8.2383C14.6842 9.48652 14.4999 10.6099 14.1312 11.6085C13.7626 12.6071 13.2096 13.4809 12.5952 14.2298C11.9194 14.9163 11.1207 15.478 10.2605 15.9149C9.40034 16.2894 8.4173 16.4766 7.37282 16.4766C6.38978 16.4766 5.40673 16.2894 4.48513 15.9149ZM9.0317 13.1688C9.52322 12.9191 9.95331 12.5447 10.3219 12.1078C10.6906 11.6709 10.9363 11.1092 11.1821 10.4851C11.3664 9.86099 11.4893 9.11206 11.4893 8.30071C11.4893 7.48936 11.3664 6.80284 11.1821 6.11631C10.9978 5.4922 10.6906 4.9305 10.3219 4.49362C9.95331 4.05674 9.52322 3.68227 9.0317 3.43262C8.54018 3.18298 7.98722 3.05816 7.37282 3.05816C6.75842 3.05816 6.20545 3.18298 5.71393 3.43262C5.22241 3.68227 4.79233 4.05674 4.42369 4.49362C4.05505 4.9305 3.80929 5.4922 3.56353 6.11631C3.37921 6.74043 3.25633 7.48936 3.25633 8.30071C3.25633 9.11206 3.37921 9.79858 3.56353 10.4851C3.74785 11.1092 4.05505 11.6709 4.42369 12.1078C4.79233 12.5447 5.22241 12.9191 5.71393 13.1688C6.20545 13.4184 6.75842 13.5433 7.37282 13.5433C7.98722 13.5433 8.54018 13.4184 9.0317 13.1688Z" transform="translate(71.1475 15.8525)" fill="#4D4D4F"/>
<path d="M0 0H3.25633V12.9816H10.0147V15.9149H0V0Z" transform="translate(89.7021 16.1022)" fill="#4D4D4F"/>
<path d="M0 0H2.82624C4.23937 0 5.52961 0.124823 6.69697 0.43688C7.86434 0.748937 8.90882 1.18582 9.76898 1.80993C10.6291 2.43404 11.305 3.24539 11.7351 4.30638C12.2266 5.30497 12.4723 6.55319 12.4723 7.98865C12.4723 9.42411 12.2266 10.6099 11.7351 11.6709C11.2435 12.6695 10.5677 13.4809 9.76898 14.105C8.90882 14.7291 7.92578 15.166 6.69697 15.478C5.52961 15.7901 4.23937 15.9149 2.82624 15.9149H0V0ZM4.30081 13.044C5.89825 13.044 7.12705 12.6071 7.92578 11.7957C8.7245 10.9844 9.15458 9.73617 9.15458 8.11347C9.15458 6.49078 8.7245 5.30497 7.92578 4.43121C7.12705 3.55745 5.89825 3.12057 4.30081 3.12057H3.25632V13.044H4.30081Z" transform="translate(102.974 16.1022)" fill="#4D4D4F"/>
<path d="M3.74785 16.1645C3.25633 16.1021 2.76481 15.9773 2.27329 15.9149C1.78177 15.7901 1.35169 15.6652 0.983046 15.5404C0.614405 15.4156 0.245761 15.2284 0 15.1035L0.798724 12.7943C1.04448 12.9191 1.35169 13.044 1.72033 13.1688C2.08897 13.2936 2.45761 13.4184 2.88769 13.5433C3.31778 13.6681 3.74786 13.7305 4.23938 13.7929C4.7309 13.8553 5.22241 13.9177 5.71394 13.9177C6.69698 13.9177 7.4957 13.7305 7.98722 13.4184C8.54018 13.1064 8.78594 12.6071 8.78594 11.9206C8.78594 11.5461 8.66306 11.234 8.47874 10.9844C8.29442 10.7348 8.04866 10.4851 7.74146 10.2979C7.43426 10.1106 7.06562 9.9234 6.69698 9.73617C6.32834 9.54894 5.89826 9.3617 5.40674 9.23688C4.79233 8.98724 4.17794 8.73759 3.62497 8.48794C3.01057 8.2383 2.51905 7.92624 2.02753 7.55177C1.53601 7.17731 1.16736 6.74043 0.921602 6.17872C0.675842 5.61702 0.491523 4.99291 0.491523 4.24397C0.491523 3.49504 0.614402 2.87092 0.921602 2.30922C1.16736 1.74752 1.59745 1.31064 2.08897 0.998582C2.58049 0.624114 3.19489 0.374468 3.87073 0.249645C4.54657 0.124822 5.28385 0 6.14402 0C7.24994 0 8.23298 0.124823 8.97027 0.312057C9.76899 0.499291 10.2605 0.686524 10.5677 0.811347L9.83043 3.18298C9.21602 2.93333 8.54018 2.80851 7.86434 2.68369C7.1885 2.55886 6.51266 2.49645 5.89826 2.49645C5.0381 2.49645 4.4237 2.62128 3.93218 2.93333C3.44065 3.18298 3.1949 3.61986 3.1949 4.24397C3.1949 4.61844 3.25633 4.86808 3.44065 5.11773C3.62497 5.36738 3.87073 5.61702 4.17793 5.80426C4.48513 5.99149 4.85377 6.17872 5.22241 6.36596C5.65249 6.55319 6.02114 6.67801 6.45122 6.86525C7.06562 7.11489 7.68002 7.36454 8.29442 7.61418C8.90882 7.86383 9.40035 8.17589 9.89187 8.55035C10.3834 8.92482 10.752 9.3617 10.9978 9.9234C11.305 10.4227 11.4279 11.1092 11.4279 11.8582C11.4279 12.5447 11.305 13.1064 11.1207 13.6681C10.8749 14.2298 10.5677 14.6667 10.0762 15.1035C9.58467 15.478 8.97026 15.7901 8.17154 16.0397C7.37282 16.2894 6.45122 16.3518 5.3453 16.3518C4.79234 16.2894 4.23937 16.2269 3.74785 16.1645Z" transform="translate(118.519 15.9774)" fill="#4D4D4F"/>
<path d="M0 0H2.64193V6.6156H9.70755V0H12.3495V15.9149H9.70755V9.11206H2.64193V15.9149H0V0Z" transform="translate(133.939 16.1022)" fill="#4D4D4F"/>
<path d="M4.36225 15.9149C3.50209 15.5404 2.70337 14.9787 2.08897 14.2298C1.47457 13.4809 0.921608 12.6695 0.552967 11.6085C0.184326 10.6099 0 9.48653 0 8.2383C0 6.99007 0.184326 5.86667 0.552967 4.86808C0.921608 3.8695 1.41313 2.99574 2.08897 2.24681C2.76481 1.49787 3.50209 0.998582 4.36225 0.561703C5.22242 0.187235 6.20545 0 7.1885 0C8.17154 0 9.15458 0.187235 10.0147 0.561703C10.8749 0.936171 11.6736 1.49787 12.288 2.24681C12.9024 2.99574 13.4554 3.80709 13.824 4.86808C14.1927 5.86667 14.377 6.99007 14.377 8.2383C14.377 9.48653 14.1927 10.6099 13.824 11.6085C13.4554 12.6071 12.9639 13.4809 12.288 14.2298C11.6122 14.9787 10.8749 15.478 10.0147 15.9149C9.15458 16.2894 8.17154 16.4766 7.1885 16.4766C6.14401 16.539 5.22242 16.3518 4.36225 15.9149ZM8.97026 13.7305C9.52322 13.4809 10.0148 13.044 10.3834 12.5447C10.752 12.0454 11.0592 11.4213 11.305 10.7348C11.5508 10.0482 11.6122 9.23688 11.6122 8.36312C11.6122 7.48936 11.4893 6.74043 11.305 5.99149C11.0592 5.30497 10.752 4.68085 10.3834 4.18156C10.0148 3.68227 9.52322 3.3078 8.97026 2.99575C8.4173 2.7461 7.80289 2.55887 7.12705 2.55887C6.45121 2.55887 5.83682 2.68369 5.28386 2.99575C4.7309 3.24539 4.23937 3.68227 3.87073 4.18156C3.50209 4.68085 3.19489 5.30497 2.94913 5.99149C2.70337 6.67802 2.64193 7.48936 2.64193 8.36312C2.64193 9.23688 2.76481 9.98582 2.94913 10.7348C3.19489 11.4213 3.50209 12.0454 3.87073 12.5447C4.23937 13.044 4.7309 13.4184 5.28386 13.7305C5.83682 14.0426 6.45121 14.1674 7.12705 14.1674C7.80289 14.1674 8.4173 13.9801 8.97026 13.7305Z" transform="translate(150.344 15.7902)" fill="#4D4D4F"/>
<path d="M11.8579 15.9149H8.90882L5.65248 10.7972C5.34528 10.7972 5.03808 10.8596 4.73088 10.8596C4.42368 10.8596 4.05504 10.922 3.74783 10.922H2.64192V15.9149H0V0H3.07201C5.71393 0 7.74145 0.43688 9.03169 1.31064C10.3219 2.1844 10.9978 3.55745 10.9978 5.4922C10.9978 7.6766 10.0762 9.17447 8.17153 10.0482L11.8579 15.9149ZM3.80928 8.61277C5.46816 8.61277 6.69698 8.36312 7.37282 7.86383C8.04866 7.36454 8.41729 6.6156 8.41729 5.55461C8.41729 4.49362 8.04866 3.80709 7.37282 3.24539C6.63554 2.7461 5.46816 2.49645 3.80928 2.49645H2.64192V8.61277H3.80928Z" transform="translate(168.776 16.1022)" fill="#4D4D4F"/>
<path d="M4.73088 2.49645H0V0H12.0423V2.49645H7.31137V15.9149H4.66944V2.49645H4.73088Z" transform="translate(182.601 16.1646)" fill="#4D4D4F"/>
<path d="M0.491514 3.05815C0.184313 2.68369 0 2.24681 0 1.74752C0 1.24823 0.184313 0.811347 0.491514 0.49929C0.798714 0.187234 1.2288 0 1.72032 0C2.21184 0 2.64192 0.187234 3.01056 0.49929C3.3792 0.811347 3.5021 1.24823 3.5021 1.74752C3.5021 2.24681 3.31776 2.68369 3.01056 3.05815C2.64192 3.43262 2.27328 3.55744 1.72032 3.55744C1.2288 3.55744 0.798714 3.43262 0.491514 3.05815Z" transform="translate(195.994 28.6469)" fill="#4D4D4F"/>
<path d="M4.66944 15.9149C3.74783 15.6028 2.94912 15.0411 2.27327 14.417C1.59743 13.7929 0.983042 12.9191 0.614402 11.8582C0.245761 10.7972 0 9.61135 0 8.2383C0 6.86525 0.18432 5.67943 0.614402 4.61844C1.04448 3.61986 1.59743 2.7461 2.27327 2.05958C2.94912 1.37305 3.74783 0.87376 4.66944 0.499291C5.59104 0.124823 6.51264 0 7.43424 0C8.23297 0 8.90882 0.0624121 9.52322 0.187235C10.1376 0.312057 10.5677 0.436879 10.8135 0.561702L10.0762 2.93333C9.70754 2.80851 9.27746 2.68369 8.78593 2.62128C8.29441 2.55887 7.86433 2.49645 7.55713 2.49645C6.81985 2.49645 6.20544 2.62128 5.59104 2.87092C4.97664 3.12057 4.48512 3.49504 4.05504 3.99433C3.62495 4.49362 3.25633 5.11773 3.07201 5.80426C2.88769 6.49078 2.70336 7.36454 2.70336 8.2383C2.70336 9.17447 2.82625 9.98582 3.07201 10.6723C3.31777 11.3589 3.6864 11.983 4.11648 12.4823C4.54656 12.9816 5.03808 13.356 5.65248 13.6057C6.26688 13.8553 6.88129 13.9801 7.61858 13.9801C8.1101 13.9801 8.60161 13.9177 9.09313 13.7929C9.58466 13.6681 9.89186 13.6057 10.0762 13.4809L10.8135 15.6652C10.4448 15.8525 9.9533 15.9773 9.40034 16.1021C8.78593 16.2269 8.17153 16.2894 7.55713 16.2894C6.51265 16.4142 5.5296 16.2894 4.66944 15.9149Z" transform="translate(202.568 15.8525)" fill="#4D4D4F"/>
<path d="M4.36224 15.9149C3.50207 15.5404 2.70336 14.9787 2.08896 14.2298C1.47456 13.4809 0.921599 12.6695 0.552958 11.6085C0.184317 10.6099 0 9.48653 0 8.2383C0 6.99007 0.184317 5.86667 0.552958 4.86808C0.921599 3.8695 1.41312 2.99574 2.08896 2.24681C2.7648 1.49787 3.50207 0.998583 4.36224 0.561703C5.2224 0.187235 6.20544 0 7.18849 0C8.17153 0 9.15458 0.187235 10.0147 0.561703C10.8749 0.936171 11.6736 1.49787 12.288 2.24681C12.9024 2.99574 13.4554 3.80709 13.824 4.86808C14.1927 5.86667 14.377 6.99007 14.377 8.2383C14.377 9.48653 14.1927 10.6099 13.824 11.6085C13.4554 12.6071 12.9639 13.4809 12.288 14.2298C11.6122 14.9787 10.8749 15.478 10.0147 15.9149C9.15458 16.2894 8.17153 16.4766 7.18849 16.4766C6.20544 16.4766 5.2224 16.3518 4.36224 15.9149ZM9.03169 13.7305C9.58465 13.4809 10.0762 13.044 10.4448 12.5447C10.8135 12.0454 11.1207 11.4213 11.3664 10.7348C11.6122 10.0482 11.6736 9.23688 11.6736 8.36312C11.6736 7.48936 11.5507 6.74043 11.3664 5.99149C11.1821 5.24255 10.8135 4.68085 10.4448 4.18156C10.0762 3.68227 9.58465 3.3078 9.03169 2.99575C8.47873 2.7461 7.86433 2.55887 7.18849 2.55887C6.51265 2.55887 5.89824 2.68369 5.34528 2.99575C4.79232 3.24539 4.30081 3.68227 3.93217 4.18156C3.56353 4.68085 3.25632 5.30497 3.01056 5.99149C2.7648 6.67802 2.70336 7.48936 2.70336 8.36312C2.70336 9.23688 2.82624 9.98582 3.01056 10.7348C3.19488 11.4837 3.56353 12.0454 3.93217 12.5447C4.30081 13.044 4.79232 13.4184 5.34528 13.7305C5.89824 13.9801 6.51265 14.1674 7.18849 14.1674C7.86433 14.1674 8.47873 13.9801 9.03169 13.7305Z" transform="translate(216.085 15.7902)" fill="#4D4D4F"/>
<path d="M1.10593 0H1.96609L7.98722 11.2965L14.0084 0H14.8685L15.9744 16.1021H13.394L12.7796 6.86525L8.17155 15.6028H7.68002L3.07201 6.86525L2.45761 16.1021H0L1.10593 0Z" transform="translate(234.025 15.9149)" fill="#4D4D4F"/>
<path d="M31.9489 32.3915H29.1841L0 2.80851V0L16.2816 16.539L31.9489 32.3915Z" transform="translate(0 11.5461)" fill="#FFCD00"/>
<path d="M26.4193 26.8369H24.5146H24.146H23.9002L12.288 15.1035L12.5952 14.7915L12.288 15.1035L0 2.62128V2.55887V0V0.312057L13.5783 13.7929L26.4193 26.8369Z" transform="translate(0 17.1007)" fill="#FFCD00"/>
<path d="M13.5783 13.7929L0 0.312057V0L13.5783 13.7929Z" transform="translate(0 17.1007)" fill="#FFCD00"/>
<path d="M0.307201 0L0 0.312057L0.307201 0Z" transform="translate(12.2881 31.8922)" fill="#FFCD00"/>
<path d="M12.841 13.044L0 0L12.841 13.044Z" transform="translate(13.5781 30.8937)" fill="#FFCD00"/>
<path d="M5.52961 4.36879L5.28385 4.61844H3.25633L0 1.31064L1.2288 0L5.52961 4.36879Z" transform="translate(15.2988 39.3191)" fill="#FFCD00"/>
<path d="M3.87073 2.62128H1.35168L0 1.24823L1.29024 0L3.87073 2.62128Z" transform="translate(13.333 41.3163)" fill="#FFCD00"/>
<path d="M4.79233 4.36879L3.50209 5.61702L0 2.05957V0.436878L0.491521 0L4.79233 4.36879Z" transform="translate(0 23.0298)" fill="#FFCD00"/>
<path d="M2.82625 2.87092L1.59744 4.18156L0 2.55886V0L2.82625 2.87092Z" transform="translate(0 26.4624)" fill="#FFCD00"/>
<path d="M35.2052 35.6993H31.9489L16.2816 19.8468L0 3.3078V0L17.6333 17.9121L17.8791 18.1617L35.2052 35.6993Z" transform="translate(0 8.23828)" fill="#636363"/>
<path d="M5.52961 4.36879L4.30081 5.61702L2.45761 3.74468L0 1.24823L1.2288 0L3.68641 2.43404L5.52961 4.36879Z" transform="translate(7.25 31.2057)" fill="#FFCD00"/>
<path d="M1.7959 0H0V6.13084H1.7959V0Z" transform="translate(5.30469 34.438) scale(0.992118 1.0078) rotate(-45)" fill="#FFCD00"/>
</svg>
